<svg width="26" height="28" viewBox="0 0 26 28" fill="none" xmlns="http://www.w3.org/2000/svg">
  <rect opacity="0.4" x="3" y="13" width="2" height="2" rx="0.5" fill="black"/>
  <rect opacity="0.4" x="3" y="16" width="2" height="2" rx="0.5" fill="black"/>
  <rect opacity="0.4" x="3" y="19" width="2" height="2" rx="0.5" fill="black"/>
  <rect opacity="0.4" x="3" y="22" width="2" height="2" rx="0.5" fill="black"/>
  <rect opacity="0.4" x="6" y="13" width="2" height="2" rx="0.5" fill="black"/>
  <rect opacity="0.4" x="6" y="16" width="2" height="2" rx="0.5" fill="black"/>
  <rect opacity="0.4" x="6" y="19" width="2" height="2" rx="0.5" fill="black"/>
  <rect opacity="0.4" x="6" y="22" width="2" height="2" rx="0.5" fill="black"/>
  <rect opacity="0.4" x="9" y="13" width="2" height="2" rx="0.5" fill="black"/>
  <rect opacity="0.4" x="9" y="16" width="2" height="2" rx="0.5" fill="black"/>
  <rect opacity="0.4" x="9" y="19" width="2" height="2" rx="0.5" fill="black"/>
  <rect opacity="0.4" x="9" y="22" width="2" height="2" rx="0.5" fill="black"/>
  <rect opacity="0.4" x="12" y="13" width="2" height="2" rx="0.5" fill="black"/>
  <rect opacity="0.4" x="12" y="16" width="2" height="2" rx="0.5" fill="black"/>
  <rect opacity="0.4" x="12" y="19" width="2" height="2" rx="0.5" fill="black"/>
  <rect opacity="0.4" x="12" y="22" width="2" height="2" rx="0.5" fill="black"/>
  <rect opacity="0.4" x="15" y="10" width="2" height="2" rx="0.5" fill="black"/>
  <rect opacity="0.4" x="15" y="13" width="2" height="2" rx="0.5" fill="black"/>
  <rect opacity="0.4" x="15" y="16" width="2" height="2" rx="0.5" fill="black"/>
  <rect opacity="0.4" x="15" y="19" width="2" height="2" rx="0.5" fill="black"/>
  <rect opacity="0.4" x="15" y="22" width="2" height="2" rx="0.5" fill="black"/>
  <rect opacity="0.6" x="18" y="10" width="2" height="2" rx="0.5" fill="black"/>
  <rect opacity="0.6" x="18" y="13" width="2" height="2" rx="0.5" fill="black"/>
  <rect opacity="0.6" x="18" y="16" width="2" height="2" rx="0.5" fill="black"/>
  <rect opacity="0.6" x="18" y="19" width="2" height="2" rx="0.5" fill="black"/>
  <rect opacity="0.6" x="18" y="22" width="2" height="2" rx="0.5" fill="black"/>
  <rect x="21" y="10" width="2" height="2" rx="0.5" fill="#CE1313"/>
  <rect x="21" y="13" width="2" height="2" rx="0.5" fill="#CE1313"/>
  <rect x="21" y="16" width="2" height="2" rx="0.5" fill="#CE1313"/>
  <rect x="21" y="19" width="2" height="2" rx="0.5" fill="#CE1313"/>
  <rect x="21" y="22" width="2" height="2" rx="0.5" fill="#CE1313"/>
  <rect x="0.5" y="2.5" width="25" height="25" rx="1.5" stroke-width="1.5" stroke="black"/>
  <line x1="1" y1="7.5" x2="25" y2="7.5" stroke-width="1.5" stroke="black" />
  <line x1="4.5" y1="2" x2="4.5" stroke-width="1.5" stroke="black"/>
  <line x1="21.5" y1="2" x2="21.5" stroke-width="1.5" stroke="black"/>
</svg>
